<?xml version="1.0" standalone="no"?>
<!DOCTYPE svg PUBLIC "-//W3C//DTD SVG 20010904//EN"
 "http://www.w3.org/TR/2001/REC-SVG-20010904/DTD/svg10.dtd">
<svg version="1.0" xmlns="http://www.w3.org/2000/svg"
 width="398.000000pt" height="398.000000pt" viewBox="0 0 398.000000 398.000000"
 preserveAspectRatio="xMidYMid meet">
<metadata>
Created by potrace 1.13, written by Peter Selinger 2001-2015
</metadata>
<g transform="translate(0.000000,398.000000) scale(0.100000,-0.100000)"
fill="#000000" stroke="none">
<path d="M2295 3490 c-22 -4 -73 -13 -113 -19 -121 -18 -193 -43 -282 -95
-100 -59 -180 -137 -270 -264 -81 -114 -208 -362 -238 -462 -13 -41 -34 -111
-47 -156 -14 -44 -25 -92 -25 -106 0 -14 -4 -38 -10 -54 -5 -16 -12 -90 -15
-164 -4 -119 -10 -234 -15 -294 0 -11 -5 -27 -10 -36 -5 -10 -12 -129 -15
-265 -3 -138 -10 -254 -15 -260 -5 -7 -8 -14 -5 -17 3 -3 -1 -11 -10 -18 -17
-14 -20 -40 -4 -40 5 0 7 -5 4 -11 -4 -6 -13 -8 -21 -5 -9 3 -14 -2 -14 -14 0
-11 -4 -20 -9 -20 -5 0 -12 -7 -15 -16 -4 -12 -2 -15 9 -10 20 7 19 -3 -5 -42
-11 -18 -20 -40 -20 -50 -1 -15 -2 -15 -16 3 -15 19 -15 19 -8 -10 4 -16 3
-27 -1 -23 -8 8 -47 -28 -64 -60 -7 -14 -20 -21 -33 -19 -16 1 -23 -4 -25 -18
-3 -19 -3 -19 5 -1 5 11 11 15 14 10 4 -5 0 -20 -8 -34 -8 -15 -14 -19 -14
-10 0 10 -11 3 -31 -18 -29 -32 -31 -33 -45 -15 -12 16 -13 16 -8 1 8 -22 -3
-22 -49 -3 -20 8 -39 15 -42 15 -13 0 32 -38 53 -44 12 -4 22 -12 22 -17 0 -5
-14 -2 -31 6 -35 19 -44 15 -34 -14 4 -12 15 -21 26 -21 11 0 18 -4 15 -9 -3
-5 -16 -6 -29 -3 -21 5 -22 5 -3 -13 18 -18 18 -19 0 -25 -16 -6 -15 -8 7 -13
20 -6 21 -9 9 -17 -13 -8 -12 -10 3 -10 22 0 22 -11 -4 -66 -20 -44 -81 -114
-100 -114 -5 0 -9 -7 -9 -15 0 -8 -4 -15 -8 -15 -5 0 -8 10 -7 22 5 58 -27 38
-49 -30 -21 -64 -195 -246 -245 -257 -24 -5 -36 -3 -42 6 -6 10 -9 11 -9 2 0
-7 -9 -13 -21 -13 -22 0 -49 -22 -49 -39 0 -6 -7 -8 -15 -5 -9 4 -15 0 -15 -8
0 -7 -15 -22 -32 -33 -18 -10 -48 -31 -66 -47 -18 -15 -38 -28 -45 -28 -7 0
-18 -9 -25 -21 -9 -14 -19 -18 -32 -14 -15 5 -20 2 -20 -10 0 -12 -6 -16 -20
-12 -11 3 -20 1 -20 -3 0 -4 47 -9 105 -9 l105 -1 37 40 c20 23 48 47 62 55
14 7 35 22 46 32 11 11 54 44 95 75 42 30 81 63 89 71 11 14 66 47 78 47 4 0
-3 -30 -43 -174 -19 -66 -34 -126 -34 -133 0 -11 245 -13 1335 -13 l1335 0 0
20 c0 11 -9 46 -19 78 -19 57 -45 176 -41 188 1 4 -3 10 -9 13 -6 4 -16 34
-22 67 -6 32 -14 64 -19 69 -4 6 -11 28 -15 50 -4 22 -9 44 -12 49 -8 12 -16
72 -16 116 0 19 -4 38 -10 41 -5 4 -5 14 2 26 6 11 9 48 8 81 -2 37 2 68 10
78 16 22 17 48 1 38 -7 -5 -9 -2 -5 9 3 9 2 17 -3 19 -5 2 -5 37 1 83 6 43 7
90 4 103 -3 12 -3 28 1 33 11 18 10 108 -1 113 -8 3 -9 29 -4 82 10 106 13
199 7 210 -3 5 -2 77 3 159 13 228 -7 382 -96 751 -89 367 -222 663 -359 799
-17 17 -60 64 -96 103 -92 103 -157 132 -255 112z m181 -637 c18 -18 84 -118
84 -127 0 -12 -48 -30 -97 -37 -47 -6 -113 -42 -113 -61 0 -16 -33 -46 -46
-41 -8 3 -14 1 -14 -5 0 -5 -14 -12 -30 -16 -38 -7 -84 9 -74 26 6 10 4 11 -7
1 -16 -16 -33 -17 -23 -2 4 8 -1 9 -17 4 -19 -6 -21 -5 -12 5 14 15 6 40 -13
40 -8 0 -14 8 -14 18 0 10 -13 26 -30 35 -16 10 -30 22 -30 27 0 11 39 38 123
85 88 48 129 60 221 63 59 2 78 -1 92 -15z m-313 -365 c2 -7 -3 -37 -12 -67
-12 -39 -26 -62 -54 -84 -35 -29 -42 -31 -135 -33 -142 -2 -180 20 -173 100 4
45 20 54 84 49 36 -3 57 0 57 6 0 6 14 11 31 11 23 0 30 -4 26 -14 -15 -39 84
-27 122 14 28 31 46 37 54 18z m205 -25 c-5 -29 57 -53 132 -53 75 0 136 -15
138 -33 0 -6 3 -29 5 -50 5 -33 2 -38 -20 -43 -48 -12 -187 2 -229 24 -44 22
-62 52 -71 117 -5 40 -4 44 18 48 13 2 25 5 27 6 2 0 2 -7 0 -16z m-110 -1 c9
-6 31 -95 32 -130 0 -2 4 -1 9 2 9 6 26 -22 23 -36 -1 -5 4 -8 11 -8 6 0 21
-7 31 -15 18 -13 17 -14 -11 -11 -28 4 -30 2 -31 -30 -1 -24 -11 -43 -32 -64
-35 -34 -47 -36 -78 -15 -15 11 -33 14 -56 10 -27 -5 -38 -2 -53 14 -18 19
-22 20 -33 6 -10 -12 -8 -21 14 -50 21 -27 34 -35 60 -35 18 0 41 -8 54 -20
12 -11 35 -20 54 -20 24 -1 29 -3 18 -10 -9 -5 -54 -7 -100 -5 -123 4 -122 4
-115 15 3 5 -7 16 -22 24 -25 13 -30 12 -51 -4 -12 -10 -22 -24 -22 -32 0 -9
-3 -9 -8 -2 -4 6 -25 21 -47 32 -46 25 -85 56 -85 69 0 5 -11 24 -25 43 -13
18 -22 36 -20 41 3 4 -1 9 -7 12 -35 12 18 22 157 27 142 6 157 9 192 32 38
25 58 55 87 131 15 37 29 44 54 29z m275 -231 c105 -14 130 -51 63 -94 -38
-26 -75 -12 -145 54 l-63 60 39 -6 c21 -3 69 -9 106 -14z m-148 -251 c13 -21
-11 -39 -66 -50 -102 -22 -229 1 -237 42 -3 16 9 18 147 17 83 -1 154 -5 156
-9z m-396 -28 c16 -9 45 -38 66 -62 41 -51 144 -110 190 -110 41 0 112 26 137
50 12 11 31 39 43 63 14 28 29 43 45 45 19 3 21 1 15 -15 -4 -10 -10 -26 -12
-36 -3 -10 -11 -16 -19 -13 -11 4 -54 -69 -54 -94 0 -23 -52 -90 -80 -105 -43
-22 -117 -29 -167 -16 -52 14 -146 112 -141 148 2 13 -5 28 -15 36 -11 7 -20
25 -20 40 -1 15 -5 27 -8 27 -4 0 -10 10 -14 23 -6 19 -8 19 -12 4 -2 -9 -9
-15 -14 -12 -15 10 -10 33 9 38 9 3 18 5 19 6 2 0 16 -7 32 -17z m521 -598
c-1 -4 4 -10 11 -15 18 -11 -6 -93 -57 -189 -7 -14 -20 -39 -29 -57 -9 -17
-30 -37 -46 -43 -35 -15 -82 -57 -92 -82 -3 -10 -11 -18 -17 -18 -5 0 -10 -10
-10 -22 -1 -52 -67 -91 -137 -81 -25 4 -32 11 -37 35 -3 18 0 41 8 57 8 14 20
48 27 74 8 34 19 52 38 62 14 8 22 14 16 15 -5 0 0 7 12 15 23 16 48 12 57
-11 3 -8 11 -14 19 -14 23 0 97 40 97 53 0 18 84 97 103 97 14 0 16 7 11 39
-4 24 -2 41 5 45 6 4 11 22 12 39 0 18 3 26 6 20 2 -7 4 -15 3 -19z m-505
-206 c11 -13 25 -34 31 -48 23 -51 -11 -145 -43 -119 -7 6 -13 18 -13 27 0 8
-3 12 -7 9 -9 -10 -32 39 -39 83 -4 27 -2 41 11 53 22 23 37 21 60 -5z m957
-663 c16 -14 36 -25 43 -25 42 0 133 -137 122 -182 -3 -9 0 -19 7 -21 30 -11
-5 -13 -60 -4 -49 8 -66 7 -90 -5 -20 -9 -39 -12 -59 -6 -20 5 -32 3 -37 -5
-6 -9 -8 -9 -8 2 0 11 -3 11 -16 0 -13 -11 -14 -9 -9 13 4 15 2 29 -4 32 -6 4
-11 15 -11 24 0 15 2 15 11 2 8 -12 9 -10 4 9 -4 14 -2 26 4 31 7 4 13 17 14
28 1 12 5 22 9 22 4 0 8 7 8 15 0 18 30 95 37 95 3 0 18 -11 35 -25z"/>
<path d="M3920 556 c0 -8 5 -16 12 -18 9 -3 9 -6 0 -12 -7 -4 -12 -2 -12 3 0
17 -37 13 -44 -4 -3 -9 -19 -21 -36 -26 -19 -7 -30 -18 -30 -30 0 -10 -11 -26
-25 -35 -14 -9 -25 -24 -25 -34 0 -10 -6 -21 -12 -24 -10 -5 -10 -7 0 -12 14
-7 16 -34 2 -34 -5 0 -10 -7 -10 -15 0 -8 -5 -15 -10 -15 -12 0 -2 -80 11 -95
5 -5 9 -19 9 -32 0 -12 7 -56 17 -98 l16 -75 99 0 98 0 0 285 0 285 -30 0
c-19 0 -30 -5 -30 -14z"/>
</g>
</svg>
